<svg width="138" height="112" viewBox="0 0 138 112" fill="none" xmlns="http://www.w3.org/2000/svg">
<line x1="72.4133" y1="76.0095" x2="92.4133" y2="76.0095" stroke="black"/>
<line x1="74.4133" y1="74.0095" x2="90.4133" y2="74.0095" stroke="black"/>
<path d="M90.4133 73.5095C90.4133 73.1155 90.2064 72.7254 89.8044 72.3615C89.4023 71.9975 88.813 71.6668 88.0702 71.3882C87.3273 71.1096 86.4454 70.8886 85.4748 70.7379C84.5042 70.5871 83.4639 70.5095 82.4133 70.5095C81.3627 70.5095 80.3225 70.5871 79.3519 70.7379C78.3812 70.8886 77.4993 71.1096 76.7565 71.3882C76.0136 71.6668 75.4243 71.9975 75.0223 72.3615C74.6202 72.7254 74.4133 73.1155 74.4133 73.5095L82.4133 73.5095H90.4133Z" fill="black"/>
<path d="M73.474 66.7368L90.8607 62.0781" stroke="black" stroke-width="2" stroke-linecap="round"/>
<line x1="73.5341" y1="63.0973" x2="88.9889" y2="58.9562" stroke="black" stroke-width="3"/>
<path d="M65.7095 37.759L83.0961 33.1003" stroke="black" stroke-width="2" stroke-linecap="round"/>
<line x1="67.5813" y1="40.881" x2="83.0361" y2="36.7399" stroke="black" stroke-width="3"/>
<rect x="66.2965" y="43.8134" width="20" height="18" transform="rotate(-15 66.2965 43.8134)" fill="black"/>
<path d="M37.9057 57.6324C36.3053 58.0612 35.3555 59.7062 35.7844 61.3066C36.2132 62.907 37.8582 63.8567 39.4586 63.4279L37.9057 57.6324ZM66.8835 49.8678L37.9057 57.6324L39.4586 63.4279L68.4364 55.6633L66.8835 49.8678Z" fill="black"/>
<line x1="79.8355" y1="26.727" x2="72.8474" y2="0.647046" stroke="black"/>
<line x1="72.8846" y1="31.6954" x2="68.7435" y2="16.2406" stroke="black"/>
<line x1="65.3466" y1="30.6093" x2="63.2761" y2="22.8819" stroke="black"/>
<path d="M4.90847 96.008C5.38847 95.56 5.91647 95.196 6.49247 94.916C7.06847 94.636 7.74447 94.496 8.52047 94.496C9.19247 94.496 9.78847 94.612 10.3085 94.844C10.8285 95.068 11.2605 95.388 11.6045 95.804C11.9565 96.212 12.2205 96.704 12.3965 97.28C12.5805 97.848 12.6725 98.476 12.6725 99.164V107H9.70847V99.164C9.70847 98.412 9.53647 97.832 9.19247 97.424C8.84847 97.008 8.32447 96.8 7.62047 96.8C7.10847 96.8 6.62847 96.916 6.18047 97.148C5.73247 97.38 5.30847 97.696 4.90847 98.096V107H1.94447V89.168H4.90847V96.008ZM21.9953 101.744C21.1393 101.784 20.4193 101.86 19.8353 101.972C19.2513 102.076 18.7833 102.212 18.4313 102.38C18.0793 102.548 17.8273 102.744 17.6753 102.968C17.5233 103.192 17.4473 103.436 17.4473 103.7C17.4473 104.22 17.5993 104.592 17.9033 104.816C18.2153 105.04 18.6193 105.152 19.1153 105.152C19.7233 105.152 20.2473 105.044 20.6873 104.828C21.1353 104.604 21.5713 104.268 21.9953 103.82V101.744ZM15.2033 96.404C16.6193 95.108 18.3233 94.46 20.3153 94.46C21.0353 94.46 21.6793 94.58 22.2473 94.82C22.8153 95.052 23.2953 95.38 23.6873 95.804C24.0793 96.22 24.3753 96.72 24.5753 97.304C24.7833 97.888 24.8873 98.528 24.8873 99.224V107H23.5433C23.2633 107 23.0473 106.96 22.8953 106.88C22.7433 106.792 22.6233 106.62 22.5353 106.364L22.2713 105.476C21.9593 105.756 21.6553 106.004 21.3593 106.22C21.0633 106.428 20.7553 106.604 20.4353 106.748C20.1153 106.892 19.7713 107 19.4033 107.072C19.0433 107.152 18.6433 107.192 18.2033 107.192C17.6833 107.192 17.2033 107.124 16.7633 106.988C16.3233 106.844 15.9433 106.632 15.6233 106.352C15.3033 106.072 15.0553 105.724 14.8793 105.308C14.7033 104.892 14.6153 104.408 14.6153 103.856C14.6153 103.544 14.6673 103.236 14.7713 102.932C14.8753 102.62 15.0433 102.324 15.2753 102.044C15.5153 101.764 15.8233 101.5 16.1993 101.252C16.5753 101.004 17.0353 100.788 17.5793 100.604C18.1313 100.42 18.7713 100.272 19.4993 100.16C20.2273 100.04 21.0593 99.968 21.9953 99.944V99.224C21.9953 98.4 21.8193 97.792 21.4673 97.4C21.1153 97 20.6073 96.8 19.9433 96.8C19.4633 96.8 19.0633 96.856 18.7433 96.968C18.4313 97.08 18.1553 97.208 17.9153 97.352C17.6753 97.488 17.4553 97.612 17.2553 97.724C17.0633 97.836 16.8473 97.892 16.6073 97.892C16.3993 97.892 16.2233 97.84 16.0793 97.736C15.9353 97.624 15.8193 97.496 15.7313 97.352L15.2033 96.404ZM27.6788 107V94.688H29.4908C29.8748 94.688 30.1268 94.868 30.2468 95.228L30.4388 96.14C30.6548 95.9 30.8788 95.68 31.1108 95.48C31.3508 95.28 31.6028 95.108 31.8668 94.964C32.1388 94.82 32.4268 94.708 32.7308 94.628C33.0428 94.54 33.3828 94.496 33.7508 94.496C34.5268 94.496 35.1628 94.708 35.6588 95.132C36.1628 95.548 36.5388 96.104 36.7868 96.8C36.9788 96.392 37.2188 96.044 37.5068 95.756C37.7948 95.46 38.1108 95.22 38.4548 95.036C38.7988 94.852 39.1628 94.716 39.5468 94.628C39.9388 94.54 40.3308 94.496 40.7228 94.496C41.4028 94.496 42.0068 94.6 42.5348 94.808C43.0628 95.016 43.5068 95.32 43.8668 95.72C44.2268 96.12 44.4988 96.608 44.6828 97.184C44.8748 97.76 44.9708 98.42 44.9708 99.164V107H42.0068V99.164C42.0068 98.38 41.8348 97.792 41.4908 97.4C41.1468 97 40.6428 96.8 39.9788 96.8C39.6748 96.8 39.3908 96.852 39.1268 96.956C38.8708 97.06 38.6428 97.212 38.4428 97.412C38.2508 97.604 38.0988 97.848 37.9868 98.144C37.8748 98.44 37.8188 98.78 37.8188 99.164V107H34.8428V99.164C34.8428 98.34 34.6748 97.74 34.3388 97.364C34.0108 96.988 33.5268 96.8 32.8868 96.8C32.4548 96.8 32.0508 96.908 31.6748 97.124C31.3068 97.332 30.9628 97.62 30.6428 97.988V107H27.6788ZM47.7882 107V94.688H49.6002C49.9842 94.688 50.2362 94.868 50.3562 95.228L50.5482 96.14C50.7642 95.9 50.9882 95.68 51.2202 95.48C51.4602 95.28 51.7122 95.108 51.9762 94.964C52.2482 94.82 52.5362 94.708 52.8402 94.628C53.1522 94.54 53.4922 94.496 53.8602 94.496C54.6362 94.496 55.2722 94.708 55.7682 95.132C56.2722 95.548 56.6482 96.104 56.8962 96.8C57.0882 96.392 57.3282 96.044 57.6162 95.756C57.9042 95.46 58.2202 95.22 58.5642 95.036C58.9082 94.852 59.2722 94.716 59.6562 94.628C60.0482 94.54 60.4402 94.496 60.8322 94.496C61.5122 94.496 62.1162 94.6 62.6442 94.808C63.1722 95.016 63.6162 95.32 63.9762 95.72C64.3362 96.12 64.6082 96.608 64.7922 97.184C64.9842 97.76 65.0802 98.42 65.0802 99.164V107H62.1162V99.164C62.1162 98.38 61.9442 97.792 61.6002 97.4C61.2562 97 60.7522 96.8 60.0882 96.8C59.7842 96.8 59.5002 96.852 59.2362 96.956C58.9802 97.06 58.7522 97.212 58.5522 97.412C58.3602 97.604 58.2082 97.848 58.0962 98.144C57.9842 98.44 57.9282 98.78 57.9282 99.164V107H54.9522V99.164C54.9522 98.34 54.7842 97.74 54.4482 97.364C54.1202 96.988 53.6362 96.8 52.9962 96.8C52.5642 96.8 52.1602 96.908 51.7842 97.124C51.4162 97.332 51.0722 97.62 50.7522 97.988V107H47.7882ZM75.8296 99.428C75.8296 99.044 75.7736 98.684 75.6616 98.348C75.5576 98.004 75.3976 97.704 75.1816 97.448C74.9656 97.192 74.6896 96.992 74.3536 96.848C74.0256 96.696 73.6416 96.62 73.2016 96.62C72.3456 96.62 71.6696 96.864 71.1736 97.352C70.6856 97.84 70.3736 98.532 70.2376 99.428H75.8296ZM70.1776 101.216C70.2256 101.848 70.3376 102.396 70.5136 102.86C70.6896 103.316 70.9216 103.696 71.2096 104C71.4976 104.296 71.8376 104.52 72.2296 104.672C72.6296 104.816 73.0696 104.888 73.5496 104.888C74.0296 104.888 74.4416 104.832 74.7856 104.72C75.1376 104.608 75.4416 104.484 75.6976 104.348C75.9616 104.212 76.1896 104.088 76.3816 103.976C76.5816 103.864 76.7736 103.808 76.9576 103.808C77.2056 103.808 77.3896 103.9 77.5096 104.084L78.3616 105.164C78.0336 105.548 77.6656 105.872 77.2576 106.136C76.8496 106.392 76.4216 106.6 75.9736 106.76C75.5336 106.912 75.0816 107.02 74.6176 107.084C74.1616 107.148 73.7176 107.18 73.2856 107.18C72.4296 107.18 71.6336 107.04 70.8976 106.76C70.1616 106.472 69.5216 106.052 68.9776 105.5C68.4336 104.94 68.0056 104.252 67.6936 103.436C67.3816 102.612 67.2256 101.66 67.2256 100.58C67.2256 99.74 67.3616 98.952 67.6336 98.216C67.9056 97.472 68.2936 96.828 68.7976 96.284C69.3096 95.732 69.9296 95.296 70.6576 94.976C71.3936 94.656 72.2216 94.496 73.1416 94.496C73.9176 94.496 74.6336 94.62 75.2896 94.868C75.9456 95.116 76.5096 95.48 76.9816 95.96C77.4536 96.432 77.8216 97.016 78.0856 97.712C78.3576 98.4 78.4936 99.188 78.4936 100.076C78.4936 100.524 78.4456 100.828 78.3496 100.988C78.2536 101.14 78.0696 101.216 77.7976 101.216H70.1776ZM83.5139 96.824C83.8979 96.088 84.3539 95.512 84.8819 95.096C85.4099 94.672 86.0339 94.46 86.7539 94.46C87.3219 94.46 87.7779 94.584 88.1219 94.832L87.9299 97.052C87.8899 97.196 87.8299 97.3 87.7499 97.364C87.6779 97.42 87.5779 97.448 87.4499 97.448C87.3299 97.448 87.1499 97.428 86.9099 97.388C86.6779 97.348 86.4499 97.328 86.2259 97.328C85.8979 97.328 85.6059 97.376 85.3499 97.472C85.0939 97.568 84.8619 97.708 84.6539 97.892C84.4539 98.068 84.2739 98.284 84.1139 98.54C83.9619 98.796 83.8179 99.088 83.6819 99.416V107H80.7179V94.688H82.4579C82.7619 94.688 82.9739 94.744 83.0939 94.856C83.2139 94.96 83.2939 95.152 83.3339 95.432L83.5139 96.824ZM97.0709 97.832C96.7349 97.424 96.3669 97.136 95.9669 96.968C95.5749 96.8 95.1509 96.716 94.6949 96.716C94.2469 96.716 93.8429 96.8 93.4829 96.968C93.1229 97.136 92.8149 97.392 92.5589 97.736C92.3029 98.072 92.1069 98.504 91.9709 99.032C91.8349 99.552 91.7669 100.168 91.7669 100.88C91.7669 101.6 91.8229 102.212 91.9349 102.716C92.0549 103.212 92.2229 103.62 92.4389 103.94C92.6549 104.252 92.9189 104.48 93.2309 104.624C93.5429 104.76 93.8909 104.828 94.2749 104.828C94.8909 104.828 95.4149 104.7 95.8469 104.444C96.2789 104.188 96.6869 103.824 97.0709 103.352V97.832ZM100.035 89.168V107H98.2229C97.8309 107 97.5829 106.82 97.4789 106.46L97.2269 105.272C96.7309 105.84 96.1589 106.3 95.5109 106.652C94.8709 107.004 94.1229 107.18 93.2669 107.18C92.5949 107.18 91.9789 107.04 91.4189 106.76C90.8589 106.48 90.3749 106.076 89.9669 105.548C89.5669 105.012 89.2549 104.352 89.0309 103.568C88.8149 102.784 88.7069 101.888 88.7069 100.88C88.7069 99.968 88.8309 99.12 89.0789 98.336C89.3269 97.552 89.6829 96.872 90.1469 96.296C90.6109 95.72 91.1669 95.272 91.8149 94.952C92.4629 94.624 93.1909 94.46 93.9989 94.46C94.6869 94.46 95.2749 94.568 95.7629 94.784C96.2509 95 96.6869 95.292 97.0709 95.66V89.168H100.035ZM105.756 96.824C106.14 96.088 106.596 95.512 107.124 95.096C107.652 94.672 108.276 94.46 108.996 94.46C109.564 94.46 110.02 94.584 110.364 94.832L110.172 97.052C110.132 97.196 110.072 97.3 109.992 97.364C109.92 97.42 109.82 97.448 109.692 97.448C109.572 97.448 109.392 97.428 109.152 97.388C108.92 97.348 108.692 97.328 108.468 97.328C108.14 97.328 107.848 97.376 107.592 97.472C107.336 97.568 107.104 97.708 106.896 97.892C106.696 98.068 106.516 98.284 106.356 98.54C106.204 98.796 106.06 99.088 105.924 99.416V107H102.96V94.688H104.7C105.004 94.688 105.216 94.744 105.336 94.856C105.456 94.96 105.536 95.152 105.576 95.432L105.756 96.824ZM117.01 94.496C117.922 94.496 118.75 94.644 119.494 94.94C120.246 95.236 120.886 95.656 121.414 96.2C121.95 96.744 122.362 97.408 122.65 98.192C122.938 98.976 123.082 99.852 123.082 100.82C123.082 101.796 122.938 102.676 122.65 103.46C122.362 104.244 121.95 104.912 121.414 105.464C120.886 106.016 120.246 106.44 119.494 106.736C118.75 107.032 117.922 107.18 117.01 107.18C116.09 107.18 115.254 107.032 114.502 106.736C113.75 106.44 113.106 106.016 112.57 105.464C112.042 104.912 111.63 104.244 111.334 103.46C111.046 102.676 110.902 101.796 110.902 100.82C110.902 99.852 111.046 98.976 111.334 98.192C111.63 97.408 112.042 96.744 112.57 96.2C113.106 95.656 113.75 95.236 114.502 94.94C115.254 94.644 116.09 94.496 117.01 94.496ZM117.01 104.9C118.034 104.9 118.79 104.556 119.278 103.868C119.774 103.18 120.022 102.172 120.022 100.844C120.022 99.516 119.774 98.504 119.278 97.808C118.79 97.112 118.034 96.764 117.01 96.764C115.97 96.764 115.198 97.116 114.694 97.82C114.198 98.516 113.95 99.524 113.95 100.844C113.95 102.164 114.198 103.172 114.694 103.868C115.198 104.556 115.97 104.9 117.01 104.9ZM128.307 103.808C128.643 104.216 129.007 104.504 129.399 104.672C129.799 104.84 130.231 104.924 130.695 104.924C131.143 104.924 131.547 104.84 131.907 104.672C132.267 104.504 132.571 104.248 132.819 103.904C133.075 103.56 133.271 103.128 133.407 102.608C133.543 102.08 133.611 101.46 133.611 100.748C133.611 100.028 133.551 99.42 133.431 98.924C133.319 98.42 133.155 98.012 132.939 97.7C132.723 97.388 132.459 97.16 132.147 97.016C131.843 96.872 131.495 96.8 131.103 96.8C130.487 96.8 129.963 96.932 129.531 97.196C129.099 97.452 128.691 97.816 128.307 98.288V103.808ZM128.151 96.368C128.655 95.8 129.227 95.34 129.867 94.988C130.507 94.636 131.259 94.46 132.123 94.46C132.795 94.46 133.407 94.6 133.959 94.88C134.519 95.16 134.999 95.568 135.399 96.104C135.807 96.632 136.119 97.288 136.335 98.072C136.559 98.848 136.671 99.74 136.671 100.748C136.671 101.668 136.547 102.52 136.299 103.304C136.051 104.088 135.695 104.768 135.231 105.344C134.775 105.92 134.219 106.372 133.563 106.7C132.915 107.02 132.187 107.18 131.379 107.18C130.691 107.18 130.103 107.076 129.615 106.868C129.127 106.652 128.691 106.356 128.307 105.98V111.02H125.343V94.688H127.155C127.539 94.688 127.791 94.868 127.911 95.228L128.151 96.368Z" fill="black"/>
</svg>
